<?xml version="1.0" encoding="utf-8"?>
<!-- Generator: Adobe Illustrator 21.0.0, SVG Export Plug-In . SVG Version: 6.00 Build 0)  -->
<svg version="1.1" id="图层_1" xmlns="http://www.w3.org/2000/svg" xmlns:xlink="http://www.w3.org/1999/xlink" x="0px" y="0px"
	 width="428px" height="160px" viewBox="0 0 428 160" style="enable-background:new 0 0 428 160;" xml:space="preserve">
<g>
	<g>
		<g>
			<path style="fill:#403F41;" d="M226.8,45.7h-23.2v57.8h23.2V45.7z M218,94.8h-5.8V54.5h5.8V94.8z"/>
			<path style="fill:#403F41;" d="M197.7,103.5v-8.7h-27.1v-5.5h27.1V46.2h-49.5l-13.5,13.5v29.6h27.1v5.5H135v8.7h26.9v17h8.7v-17
				H197.7z M143.5,80.6V63.3l8.4-8.4H189v25.7h-18.4v-8.5h15.6v-8.7h-15.6v-5.5h-8.7v5.5h-15.6v8.7h15.6v8.5H143.5z"/>
			<polygon style="fill:#403F41;" points="330.9,42.3 322.2,42.3 322.2,46.2 306,46.2 306,54.9 322.2,54.9 322.2,111.8 310,111.8 
				310,120.5 330.9,120.5 330.9,54.9 334.8,54.9 334.8,46.2 330.9,46.2 			"/>
			
				<rect x="293.8" y="111" transform="matrix(0.7084 -0.7059 0.7059 0.7084 5.2944 244.1667)" style="fill:#403F41;" width="8.7" height="9.3"/>
			<rect x="135.2" y="110.6" style="fill:#403F41;" width="8.7" height="9.9"/>
			<rect x="189.7" y="110.6" style="fill:#403F41;" width="8.7" height="9.9"/>
			<rect x="345.6" y="111.7" style="fill:#403F41;" width="23.5" height="8.7"/>
			<polygon style="fill:#403F41;" points="372.8,96.7 384.1,96.7 384.1,111.7 372.8,111.7 372.8,120.4 404.2,120.4 404.2,111.7 
				392.8,111.7 392.8,96.7 404.2,96.7 404.2,88 372.8,88 			"/>
			<polygon style="fill:#403F41;" points="265.2,77.4 251.2,77.4 251.2,54.9 265.2,54.9 265.2,46.2 251.2,46.2 251.2,42.3 
				242.4,42.3 242.4,46.2 228.3,46.2 228.3,54.9 242.4,54.9 242.4,77.4 228.3,77.4 228.3,86.1 265.2,86.1 			"/>
			<polygon style="fill:#403F41;" points="354.4,82.7 372.9,64.2 366.8,58 345.6,79.1 345.6,96.7 369.2,96.7 369.2,88 354.4,88 			
				"/>
			<polygon style="fill:#403F41;" points="282,54.9 295.3,54.9 295.3,86.3 304,77.6 304,46.2 273.3,46.2 273.3,107 282,98.3 			"/>
			<polygon style="fill:#403F41;" points="367,76.9 372.9,83.3 388.8,68.4 403.8,83.4 410,77.2 395.2,62.5 403.8,54.4 403.8,46.2 
				372.9,46.2 372.9,54.9 390.5,54.9 			"/>
			<polygon style="fill:#403F41;" points="292.9,103.7 292.9,66.7 284.2,66.7 284.2,100.1 271.8,112.3 246.8,87.7 216.9,117.6 
				223.1,123.7 242.4,104.4 242.4,120.5 251.2,120.5 251.2,104.2 271.8,124.6 			"/>
		</g>
		<polygon style="fill:#F05A21;" points="371.1,46.3 343.6,46.3 351.3,54 344.7,60.6 324.7,60.6 295.2,90.1 295.2,102.4 328.3,69.3 
			348.3,69.3 364.4,53.2 364.3,53.1 		"/>
	</g>
	<g>
		<polygon style="fill:#F05A21;" points="47,91.9 65.1,102.3 65.1,81.4 47,70.9 		"/>
		<path style="fill:#F05A21;" d="M113.9,49.4L70,24.1c-1-0.6-2.2-0.9-3.3-0.9c-1.1,0-2.3,0.3-3.3,0.9L19.6,49.4
			c-2,1.2-3.3,3.4-3.3,5.7l0,50.6c0,2.4,1.3,4.5,3.3,5.7l38.6,22.3v9.8l55.6-32.1c2-1.2,3.3-3.4,3.3-5.7l0-50.6
			C117.2,52.8,115.9,50.6,113.9,49.4z M96.2,97.5l-29.5,17l-29.5-17l0-34l29.5-17l29.5,17L96.2,97.5z"/>
	</g>
</g>
</svg>
